<svg width="20" height="20" viewBox="0 0 20 20" fill="none" xmlns="http://www.w3.org/2000/svg">
<path d="M2.64306 6.357C4.39006 4.857 5.77006 3.671 9.51506 5.787C11.3141 6.803 12.7651 7.187 13.9721 7.185C16.0871 7.185 17.4581 6.009 18.6431 4.992C18.8465 4.81505 18.9729 4.56585 18.9957 4.29723C19.0185 4.0286 18.9358 3.76166 18.7651 3.553C18.6818 3.45061 18.5788 3.36596 18.4623 3.30405C18.3457 3.24215 18.2179 3.20425 18.0865 3.19259C17.955 3.18094 17.8225 3.19577 17.6969 3.2362C17.5713 3.27663 17.455 3.34185 17.3551 3.428C15.6091 4.93 14.2281 6.116 10.4831 3.998C5.53506 1.205 3.21706 3.195 1.35506 4.795C1.15181 4.97208 1.0255 5.22135 1.00292 5.48998C0.980329 5.7586 1.06323 6.02546 1.23406 6.234C1.31738 6.33622 1.42036 6.42068 1.5369 6.48239C1.65345 6.5441 1.78119 6.58181 1.91256 6.59328C2.04394 6.60475 2.17628 6.58974 2.30175 6.54916C2.42723 6.50857 2.54328 6.44323 2.64306 6.357V6.357ZM17.3551 8.535C15.6091 10.035 14.2281 11.223 10.4831 9.105C5.53506 6.31 3.21706 8.301 1.35506 9.9C1.15181 10.0771 1.0255 10.3264 1.00292 10.595C0.980329 10.8636 1.06323 11.1305 1.23406 11.339C1.31724 11.4414 1.42011 11.526 1.53658 11.5879C1.65305 11.6498 1.78076 11.6877 1.91213 11.6993C2.04351 11.711 2.1759 11.6962 2.30145 11.6557C2.42699 11.6153 2.54316 11.5501 2.64306 11.464C4.39006 9.963 5.77006 8.777 9.51506 10.892C11.3141 11.91 12.7651 12.292 13.9721 12.292C16.0871 12.292 17.4581 11.116 18.6431 10.097C18.8466 9.92037 18.9732 9.67131 18.996 9.40277C19.0188 9.13423 18.9359 8.8674 18.7651 8.659C18.6818 8.55656 18.5788 8.47189 18.4622 8.40999C18.3456 8.3481 18.2178 8.31025 18.0863 8.29868C17.9548 8.28712 17.8223 8.30208 17.6967 8.34267C17.5711 8.38326 17.4549 8.44867 17.3551 8.535V8.535ZM17.3551 13.641C15.6091 15.143 14.2281 16.329 10.4831 14.213C5.53506 11.418 3.21706 13.408 1.35506 15.008C1.15181 15.1851 1.0255 15.4344 1.00292 15.703C0.980329 15.9716 1.06323 16.2385 1.23406 16.447C1.3173 16.5493 1.42025 16.6339 1.53679 16.6957C1.65334 16.7575 1.78111 16.7952 1.91252 16.8067C2.04394 16.8182 2.17632 16.8031 2.30181 16.7625C2.4273 16.7218 2.54334 16.6564 2.64306 16.57C4.39006 15.07 5.77006 13.885 9.51506 16C11.3141 17.016 12.7651 17.4 13.9721 17.4C16.0871 17.4 17.4581 16.222 18.6431 15.205C18.8465 15.0281 18.9729 14.7789 18.9957 14.5102C19.0185 14.2416 18.9358 13.9747 18.7651 13.766C18.6817 13.6637 18.5787 13.5792 18.4622 13.5174C18.3456 13.4555 18.2179 13.4177 18.0864 13.406C17.955 13.3944 17.8226 13.4092 17.697 13.4495C17.5714 13.4899 17.4551 13.555 17.3551 13.641V13.641Z" fill="#f79620"/>
</svg>
