<svg width="30" height="25" viewBox="0 0 512 448" fill="none" xmlns="http://www.w3.org/2000/svg">
<path d="M156.7 224H16C7.2 224 0 231.2 0 240V272C0 280.8 7.2 288 16 288H158.2C174.1 288 189 298.9 191.6 314.6C194.9 334.6 179.5 352 160 352C145.9 352 133.9 342.8 129.6 330.1C127.5 323.8 121 320 114.4 320H81.6C71.8 320 63.9 328.8 65.7 338.4C74.3 382.5 113.3 416 159.9 416C217 416 262.6 365.9 255.1 307.4C249 259 205.4 224 156.7 224ZM16 192H352C411.7 192 458.8 137.2 445.8 75.3C438.2 39.1 408.9 9.8 372.7 2.2C317.3 -9.4 267.6 27.1 257.8 77.7C255.9 87.3 263.9 96 273.6 96H306.4C313.1 96 319.5 92.2 321.6 85.9C325.9 73.2 337.9 64 352 64C371.4 64 386.9 81.4 383.6 101.4C381 117.1 366.2 128 350.2 128H16C7.2 128 0 135.2 0 144V176C0 184.8 7.2 192 16 192ZM400 224H243.7C263 240.6 276.9 262.8 283.5 288H400C426.5 288 448 309.5 448 336C448 362.5 426.5 384 400 384C382.1 384 366.7 374.1 358.4 359.6C355.5 354.6 349.7 352 343.9 352H310.1C299.2 352 291.1 362.8 294.8 373.1C312.6 423.7 365.3 457.9 424.2 445.4C465.4 436.7 499.3 403.8 508.9 362.7C526 289.5 470.5 224 400 224Z" fill="#8825c2"/>
</svg>
