<svg width="24" height="24" viewBox="0 0 24 24" fill="none" xmlns="http://www.w3.org/2000/svg">
<path d="M21 8.5V17.75C21 18.612 20.6576 19.4386 20.0481 20.0481C19.4386 20.6576 18.612 21 17.75 21H6.25C5.38805 21 4.5614 20.6576 3.9519 20.0481C3.34241 19.4386 3 18.612 3 17.75V8.5H21ZM7.25 15C6.91848 15 6.60054 15.1317 6.36612 15.3661C6.1317 15.6005 6 15.9185 6 16.25C6 16.5815 6.1317 16.8995 6.36612 17.1339C6.60054 17.3683 6.91848 17.5 7.25 17.5C7.58152 17.5 7.89946 17.3683 8.13388 17.1339C8.3683 16.8995 8.5 16.5815 8.5 16.25C8.5 15.9185 8.3683 15.6005 8.13388 15.3661C7.89946 15.1317 7.58152 15 7.25 15V15ZM12 15C11.6685 15 11.3505 15.1317 11.1161 15.3661C10.8817 15.6005 10.75 15.9185 10.75 16.25C10.75 16.5815 10.8817 16.8995 11.1161 17.1339C11.3505 17.3683 11.6685 17.5 12 17.5C12.3315 17.5 12.6495 17.3683 12.8839 17.1339C13.1183 16.8995 13.25 16.5815 13.25 16.25C13.25 15.9185 13.1183 15.6005 12.8839 15.3661C12.6495 15.1317 12.3315 15 12 15V15ZM7.25 10.5C6.91848 10.5 6.60054 10.6317 6.36612 10.8661C6.1317 11.1005 6 11.4185 6 11.75C6 12.0815 6.1317 12.3995 6.36612 12.6339C6.60054 12.8683 6.91848 13 7.25 13C7.58152 13 7.89946 12.8683 8.13388 12.6339C8.3683 12.3995 8.5 12.0815 8.5 11.75C8.5 11.4185 8.3683 11.1005 8.13388 10.8661C7.89946 10.6317 7.58152 10.5 7.25 10.5V10.5ZM12 10.5C11.6685 10.5 11.3505 10.6317 11.1161 10.8661C10.8817 11.1005 10.75 11.4185 10.75 11.75C10.75 12.0815 10.8817 12.3995 11.1161 12.6339C11.3505 12.8683 11.6685 13 12 13C12.3315 13 12.6495 12.8683 12.8839 12.6339C13.1183 12.3995 13.25 12.0815 13.25 11.75C13.25 11.4185 13.1183 11.1005 12.8839 10.8661C12.6495 10.6317 12.3315 10.5 12 10.5V10.5ZM16.75 10.5C16.4185 10.5 16.1005 10.6317 15.8661 10.8661C15.6317 11.1005 15.5 11.4185 15.5 11.75C15.5 12.0815 15.6317 12.3995 15.8661 12.6339C16.1005 12.8683 16.4185 13 16.75 13C17.0815 13 17.3995 12.8683 17.6339 12.6339C17.8683 12.3995 18 12.0815 18 11.75C18 11.4185 17.8683 11.1005 17.6339 10.8661C17.3995 10.6317 17.0815 10.5 16.75 10.5ZM17.75 3C18.612 3 19.4386 3.34241 20.0481 3.9519C20.6576 4.5614 21 5.38805 21 6.25V7H3V6.25C3 5.38805 3.34241 4.5614 3.9519 3.9519C4.5614 3.34241 5.38805 3 6.25 3H17.75Z" fill="#9ca3ad"/>
</svg>
