<svg width="57" height="51" viewBox="0 0 57 51" fill="none" xmlns="http://www.w3.org/2000/svg">
<g clip-path="url(#clip0)">
<path d="M27.7449 14.7681L9.50001 29.8938V46.2188C9.50001 46.6415 9.66682 47.0468 9.96375 47.3457C10.2607 47.6446 10.6634 47.8125 11.0833 47.8125L22.1726 47.7836C22.5911 47.7815 22.9918 47.6127 23.2871 47.314C23.5823 47.0154 23.748 46.6112 23.748 46.1899V36.6563C23.748 36.2336 23.9148 35.8282 24.2118 35.5293C24.5087 35.2304 24.9114 35.0625 25.3313 35.0625H31.6647C32.0846 35.0625 32.4873 35.2304 32.7843 35.5293C33.0812 35.8282 33.248 36.2336 33.248 36.6563V46.1829C33.2474 46.3926 33.2878 46.6004 33.3671 46.7943C33.4464 46.9883 33.5629 47.1646 33.71 47.3131C33.8571 47.4616 34.0319 47.5795 34.2243 47.6599C34.4167 47.7403 34.623 47.7816 34.8313 47.7816L45.9166 47.8125C46.3366 47.8125 46.7393 47.6446 47.0362 47.3457C47.3332 47.0468 47.5 46.6415 47.5 46.2188V29.8828L29.259 14.7681C29.0446 14.5941 28.7774 14.4992 28.502 14.4992C28.2265 14.4992 27.9594 14.5941 27.7449 14.7681V14.7681ZM56.5645 25.0488L48.2916 18.1847V4.38782C48.2916 4.0708 48.1665 3.76677 47.9438 3.5426C47.7211 3.31844 47.4191 3.1925 47.1041 3.1925H41.5625C41.2475 3.1925 40.9455 3.31844 40.7228 3.5426C40.5001 3.76677 40.375 4.0708 40.375 4.38782V11.6205L31.5152 4.28323C30.665 3.57897 29.5981 3.19391 28.497 3.19391C27.3959 3.19391 26.329 3.57897 25.4788 4.28323L0.429497 25.0488C0.30925 25.1488 0.209765 25.2717 0.136726 25.4105C0.0636872 25.5493 0.0185255 25.7011 0.00382166 25.8575C-0.0108822 26.0138 0.00516007 26.1715 0.0510317 26.3216C0.0969034 26.4717 0.171705 26.6112 0.271164 26.7322L2.7946 29.8201C2.89379 29.9415 3.01579 30.042 3.15362 30.1159C3.29145 30.1898 3.4424 30.2356 3.59783 30.2506C3.75327 30.2657 3.91013 30.2498 4.05944 30.2038C4.20875 30.1578 4.34758 30.0825 4.46798 29.9824L27.7449 10.6841C27.9594 10.5101 28.2265 10.4153 28.502 10.4153C28.7774 10.4153 29.0446 10.5101 29.259 10.6841L52.5369 29.9824C52.6571 30.0826 52.7957 30.1579 52.9448 30.204C53.094 30.2502 53.2506 30.2663 53.4059 30.2515C53.5613 30.2367 53.7121 30.1913 53.85 30.1178C53.9878 30.0442 54.1099 29.9441 54.2093 29.8231L56.7328 26.7352C56.8321 26.6135 56.9066 26.4733 56.9519 26.3225C56.9973 26.1718 57.0126 26.0135 56.9969 25.8568C56.9813 25.7001 56.935 25.548 56.8608 25.4094C56.7866 25.2707 56.6859 25.1482 56.5645 25.0488V25.0488Z" fill="#9ca3ad"/>
</g>
<defs>
<clipPath id="clip0">
<rect width="57" height="51" fill="white"/>
</clipPath>
</defs>
</svg>
